<svg width="25" height="24" viewBox="0 0 25 24" fill="none" xmlns="http://www.w3.org/2000/svg">
<path d="M13.3484 2.75137C12.8798 2.28275 12.12 2.28275 11.6514 2.75137L3.25137 11.1514C2.78275 11.62 2.78275 12.3798 3.25137 12.8484C3.72 13.3171 4.4798 13.3171 4.94843 12.8484L5.2999 12.497V20.3999C5.2999 21.0626 5.83716 21.5999 6.4999 21.5999H8.8999C9.56264 21.5999 10.0999 21.0626 10.0999 20.3999V17.9999C10.0999 17.3372 10.6372 16.7999 11.2999 16.7999H13.6999C14.3626 16.7999 14.8999 17.3372 14.8999 17.9999V20.3999C14.8999 21.0626 15.4372 21.5999 16.0999 21.5999H18.4999C19.1626 21.5999 19.6999 21.0626 19.6999 20.3999V12.497L20.0514 12.8484C20.52 13.3171 21.2798 13.3171 21.7484 12.8484C22.2171 12.3798 22.2171 11.62 21.7484 11.1514L13.3484 2.75137Z" fill="#C2C2C2"/>
</svg>
